<?xml version="1.0" encoding="UTF-8"?>
<svg width="660.8599853515625px" height="160.16000366210938px" xmlns="http://www.w3.org/2000/svg" viewBox="-80.42999267578125 -5.0800018310546875 660.8599853515625 160.16000366210938" style="background: rgba(0, 0, 0, 0);" preserveAspectRatio="xMidYMid"><defs><linearGradient id="editing-gradow-gradient" x1="0" x2="1" y1="0.5" y2="0.5" gradientUnits="objectBoundingBox"><stop offset="0" stop-color="#f0f"></stop><stop offset="1" stop-color="#0ff"></stop></linearGradient><filter id="editing-gradow-filter" x="-100%" y="-100%" width="300%" height="300%"><feFlood flood-color="#fffcd9" result="flood"></feFlood><feComposite operator="in" in2="SourceAlpha" in="flood" result="shadow"></feComposite><feOffset dx="-4" dy="-4" in="SourceGraphic" result="offset-1"></feOffset><feOffset dx="4" dy="4" in="shadow" result="offset-2"></feOffset><feMerge><feMergeNode in="offset-2"></feMergeNode><feMergeNode in="offset-1"></feMergeNode></feMerge></filter></defs><g filter="url(#editing-gradow-filter)"><g transform="translate(14.065027952194214, 103.28000068664551)"><path d="M32.81 0L27.03 0L27.03-17.19L27.03-17.19Q27.03-20.13 26.64-22.03L26.64-22.03L26.64-22.03Q26.25-23.94 25.48-25.05L25.48-25.05L25.48-25.05Q24.72-26.16 23.55-26.59L23.55-26.59L23.55-26.59Q22.38-27.03 20.78-27.03L20.78-27.03L20.78-27.03Q19.09-27.03 17.48-26.23L17.48-26.23L17.48-26.23Q15.88-25.44 14.53-24.17L14.53-24.17L14.53-24.17Q13.19-22.91 12.16-21.31L12.16-21.31L12.16-21.31Q11.13-19.72 10.63-18.13L10.63-18.13L10.63 0L4.84 0L4.84-19.22L4.84-19.22Q4.84-23.84 4.33-27.05L4.33-27.05L4.33-27.05Q3.81-30.25 3.28-31.88L3.28-31.88L8.91-31.88L8.91-31.88Q9.09-31.38 9.28-30.58L9.28-30.58L9.28-30.58Q9.47-29.78 9.63-28.91L9.63-28.91L9.63-28.91Q9.78-28.03 9.91-27.19L9.91-27.19L10.16-25.78L10.16-25.78Q13.13-29.34 16.16-30.92L16.16-30.92L16.16-30.92Q19.19-32.50 22.50-32.50L22.50-32.50L22.50-32.50Q27.50-32.50 30.16-29.23L30.16-29.23L30.16-29.23Q32.81-25.97 32.81-19.53L32.81-19.53L32.81 0ZM45.78-15.78L45.78-15.78L45.78-15.78Q45.78-13.06 46.44-10.91L46.44-10.91L46.44-10.91Q47.09-8.75 48.30-7.27L48.30-7.27L48.30-7.27Q49.50-5.78 51.16-5L51.16-5L51.16-5Q52.81-4.22 54.84-4.22L54.84-4.22L54.84-4.22Q56.72-4.22 58.38-5L58.38-5L58.38-5Q60.03-5.78 61.27-7.27L61.27-7.27L61.27-7.27Q62.50-8.75 63.20-10.91L63.20-10.91L63.20-10.91Q63.91-13.06 63.91-15.78L63.91-15.78L63.91-15.78Q63.91-18.53 63.25-20.70L63.25-20.70L63.25-20.70Q62.59-22.88 61.39-24.39L61.39-24.39L61.39-24.39Q60.19-25.91 58.52-26.70L58.52-26.70L58.52-26.70Q56.84-27.50 54.84-27.50L54.84-27.50L54.84-27.50Q52.94-27.50 51.28-26.70L51.28-26.70L51.28-26.70Q49.63-25.91 48.41-24.39L48.41-24.39L48.41-24.39Q47.19-22.88 46.48-20.70L46.48-20.70L46.48-20.70Q45.78-18.53 45.78-15.78ZM40-15.78L40-15.78L40-15.78Q40-19.81 41.22-22.92L41.22-22.92L41.22-22.92Q42.44-26.03 44.50-28.17L44.50-28.17L44.50-28.17Q46.56-30.31 49.31-31.41L49.31-31.41L49.31-31.41Q52.06-32.50 55.16-32.50L55.16-32.50L55.16-32.50Q58.38-32.50 61.05-31.41L61.05-31.41L61.05-31.41Q63.72-30.31 65.64-28.17L65.64-28.17L65.64-28.17Q67.56-26.03 68.63-22.92L68.63-22.92L68.63-22.92Q69.69-19.81 69.69-15.78L69.69-15.78L69.69-15.78Q69.69-11.75 68.47-8.66L68.47-8.66L68.47-8.66Q67.25-5.56 65.19-3.47L65.19-3.47L65.19-3.47Q63.13-1.38 60.38-0.30L60.38-0.30L60.38-0.30Q57.63 0.78 54.53 0.78L54.53 0.78L54.53 0.78Q51.31 0.78 48.64-0.30L48.64-0.30L48.64-0.30Q45.97-1.38 44.05-3.47L44.05-3.47L44.05-3.47Q42.13-5.56 41.06-8.66L41.06-8.66L41.06-8.66Q40-11.75 40-15.78ZM98.91-31.88L105.47-31.88L105.47-31.88Q104.81-30.53 104.11-28.97L104.11-28.97L104.11-28.97Q103.41-27.41 102.77-25.91L102.77-25.91L102.77-25.91Q102.13-24.41 101.56-23.06L101.56-23.06L101.56-23.06Q101-21.72 100.63-20.78L100.63-20.78L100.63-20.78Q100.31-20.03 99.80-18.73L99.80-18.73L99.80-18.73Q99.28-17.44 98.64-15.83L98.64-15.83L98.64-15.83Q98-14.22 97.28-12.42L97.28-12.42L97.28-12.42Q96.56-10.63 95.88-8.88L95.88-8.88L95.88-8.88Q94.22-4.75 92.34 0L92.34 0L86.41 0L86.41 0Q84.59-4.53 83-8.56L83-8.56L83-8.56Q82.31-10.28 81.59-12.06L81.59-12.06L81.59-12.06Q80.88-13.84 80.23-15.48L80.23-15.48L80.23-15.48Q79.59-17.13 79.05-18.50L79.05-18.50L79.05-18.50Q78.50-19.88 78.13-20.78L78.13-20.78L78.13-20.78Q77.75-21.72 77.19-23.08L77.19-23.08L77.19-23.08Q76.63-24.44 75.97-25.94L75.97-25.94L75.97-25.94Q75.31-27.44 74.63-28.98L74.63-28.98L74.63-28.98Q73.94-30.53 73.28-31.88L73.28-31.88L79.84-31.88L89.38-6.25L98.91-31.88ZM131.88-24.84L131.88-26.88L131.88-26.88Q131.09-27.03 129.61-27.27L129.61-27.27L129.61-27.27Q128.13-27.50 125.78-27.50L125.78-27.50L125.78-27.50Q122.72-27.50 120.67-26.27L120.67-26.27L120.67-26.27Q118.63-25.03 117.41-22.98L117.41-22.98L117.41-22.98Q116.19-20.94 115.67-18.28L115.67-18.28L115.67-18.28Q115.16-15.63 115.16-12.81L115.16-12.81L115.16-12.81Q115.16-11 115.52-9.48L115.52-9.48L115.52-9.48Q115.88-7.97 116.50-6.86L116.50-6.86L116.50-6.86Q117.13-5.75 117.94-5.14L117.94-5.14L117.94-5.14Q118.75-4.53 119.69-4.53L119.69-4.53L119.69-4.53Q120.72-4.53 121.80-5.22L121.80-5.22L121.80-5.22Q122.88-5.91 123.92-7.08L123.92-7.08L123.92-7.08Q124.97-8.25 125.97-9.78L125.97-9.78L125.97-9.78Q126.97-11.31 127.84-13.02L127.84-13.02L127.84-13.02Q128.72-14.72 129.47-16.47L129.47-16.47L129.47-16.47Q130.22-18.22 130.75-19.80L130.75-19.80L130.75-19.80Q131.28-21.38 131.58-22.69L131.58-22.69L131.58-22.69Q131.88-24 131.88-24.84L131.88-24.84ZM139.69 0L134.22 0L134.22 0Q133.88-0.75 133.61-2.25L133.61-2.25L133.61-2.25Q133.34-3.75 133.17-5.48L133.17-5.48L133.17-5.48Q133-7.22 132.91-8.88L132.91-8.88L132.91-8.88Q132.81-10.53 132.81-11.56L132.81-11.56L132.81-14.69L132.81-14.69Q131.81-12.03 130.42-9.28L130.42-9.28L130.42-9.28Q129.03-6.53 127.25-4.30L127.25-4.30L127.25-4.30Q125.47-2.06 123.33-0.64L123.33-0.64L123.33-0.64Q121.19 0.78 118.75 0.78L118.75 0.78L118.75 0.78Q116.78 0.78 115.06-0.09L115.06-0.09L115.06-0.09Q113.34-0.97 112.08-2.69L112.08-2.69L112.08-2.69Q110.81-4.41 110.09-6.95L110.09-6.95L110.09-6.95Q109.38-9.50 109.38-12.81L109.38-12.81L109.38-12.81Q109.38-16.53 110.38-20.08L110.38-20.08L110.38-20.08Q111.38-23.63 113.44-26.39L113.44-26.39L113.44-26.39Q115.50-29.16 118.69-30.83L118.69-30.83L118.69-30.83Q121.88-32.50 126.25-32.50L126.25-32.50L126.25-32.50Q129.28-32.50 132.28-32.11L132.28-32.11L132.28-32.11Q135.28-31.72 137.66-31.09L137.66-31.09L137.66-16.56L137.66-16.56Q137.66-10.66 138.22-6.64L138.22-6.64L138.22-6.64Q138.78-2.63 139.69 0L139.69 0ZM187.50-8.13L188.13-2.66L188.13-2.66Q186.94-1.75 185.77-1.11L185.77-1.11L185.77-1.11Q184.59-0.47 183.31-0.05L183.31-0.05L183.31-0.05Q182.03 0.38 180.56 0.58L180.56 0.58L180.56 0.58Q179.09 0.78 177.34 0.78L177.34 0.78L177.34 0.78Q174.19 0.78 171.44-0.33L171.44-0.33L171.44-0.33Q168.69-1.44 166.63-3.53L166.63-3.53L166.63-3.53Q164.56-5.63 163.38-8.59L163.38-8.59L163.38-8.59Q162.19-11.56 162.19-15.31L162.19-15.31L162.19-15.31Q162.19-18.84 163.33-21.97L163.33-21.97L163.33-21.97Q164.47-25.09 166.58-27.44L166.58-27.44L166.58-27.44Q168.69-29.78 171.70-31.14L171.70-31.14L171.70-31.14Q174.72-32.50 178.44-32.50L178.44-32.50L178.44-32.50Q181.56-32.50 183.83-31.77L183.83-31.77L183.83-31.77Q186.09-31.03 187.81-29.84L187.81-29.84L186.72-24.22L186.72-24.22Q184.59-25.78 182.50-26.56L182.50-26.56L182.50-26.56Q180.41-27.34 177.97-27.34L177.97-27.34L177.97-27.34Q175.88-27.34 174.08-26.55L174.08-26.55L174.08-26.55Q172.28-25.75 170.95-24.25L170.95-24.25L170.95-24.25Q169.63-22.75 168.88-20.56L168.88-20.56L168.88-20.56Q168.13-18.38 168.13-15.63L168.13-15.63L168.13-15.63Q168.13-13.09 168.81-11.03L168.81-11.03L168.81-11.03Q169.50-8.97 170.78-7.48L170.78-7.48L170.78-7.48Q172.06-6 173.88-5.19L173.88-5.19L173.88-5.19Q175.69-4.38 177.97-4.38L177.97-4.38L177.97-4.38Q180.81-4.38 183.13-5.34L183.13-5.34L183.13-5.34Q185.44-6.31 187.50-8.13L187.50-8.13ZM199.84-15.78L199.84-15.78L199.84-15.78Q199.84-13.06 200.50-10.91L200.50-10.91L200.50-10.91Q201.16-8.75 202.36-7.27L202.36-7.27L202.36-7.27Q203.56-5.78 205.22-5L205.22-5L205.22-5Q206.88-4.22 208.91-4.22L208.91-4.22L208.91-4.22Q210.78-4.22 212.44-5L212.44-5L212.44-5Q214.09-5.78 215.33-7.27L215.33-7.27L215.33-7.27Q216.56-8.75 217.27-10.91L217.27-10.91L217.27-10.91Q217.97-13.06 217.97-15.78L217.97-15.78L217.97-15.78Q217.97-18.53 217.31-20.70L217.31-20.70L217.31-20.70Q216.66-22.88 215.45-24.39L215.45-24.39L215.45-24.39Q214.25-25.91 212.58-26.70L212.58-26.70L212.58-26.70Q210.91-27.50 208.91-27.50L208.91-27.50L208.91-27.50Q207-27.50 205.34-26.70L205.34-26.70L205.34-26.70Q203.69-25.91 202.47-24.39L202.47-24.39L202.47-24.39Q201.25-22.88 200.55-20.70L200.55-20.70L200.55-20.70Q199.84-18.53 199.84-15.78ZM194.06-15.78L194.06-15.78L194.06-15.78Q194.06-19.81 195.28-22.92L195.28-22.92L195.28-22.92Q196.50-26.03 198.56-28.17L198.56-28.17L198.56-28.17Q200.63-30.31 203.38-31.41L203.38-31.41L203.38-31.41Q206.13-32.50 209.22-32.50L209.22-32.50L209.22-32.50Q212.44-32.50 215.11-31.41L215.11-31.41L215.11-31.41Q217.78-30.31 219.70-28.17L219.70-28.17L219.70-28.17Q221.63-26.03 222.69-22.92L222.69-22.92L222.69-22.92Q223.75-19.81 223.75-15.78L223.75-15.78L223.75-15.78Q223.75-11.75 222.53-8.66L222.53-8.66L222.53-8.66Q221.31-5.56 219.25-3.47L219.25-3.47L219.25-3.47Q217.19-1.38 214.44-0.30L214.44-0.30L214.44-0.30Q211.69 0.78 208.59 0.78L208.59 0.78L208.59 0.78Q205.38 0.78 202.70-0.30L202.70-0.30L202.70-0.30Q200.03-1.38 198.11-3.47L198.11-3.47L198.11-3.47Q196.19-5.56 195.13-8.66L195.13-8.66L195.13-8.66Q194.06-11.75 194.06-15.78ZM256.25-20.63L256.25 0L250.47 0L250.47-17.81L250.47-17.81Q250.47-20.72 250.25-22.52L250.25-22.52L250.25-22.52Q250.03-24.31 249.52-25.33L249.52-25.33L249.52-25.33Q249-26.34 248.13-26.69L248.13-26.69L248.13-26.69Q247.25-27.03 245.94-27.03L245.94-27.03L245.94-27.03Q244.78-27.03 243.63-26.56L243.63-26.56L243.63-26.56Q242.47-26.09 241.42-25.23L241.42-25.23L241.42-25.23Q240.38-24.38 239.48-23.20L239.48-23.20L239.48-23.20Q238.59-22.03 237.97-20.63L237.97-20.63L237.97 0L232.19 0L232.19-19.22L232.19-19.22Q232.19-23.84 231.66-27.05L231.66-27.05L231.66-27.05Q231.13-30.25 230.63-31.88L230.63-31.88L236.25-31.88L236.25-31.88Q236.59-30.88 236.84-29.52L236.84-29.52L236.84-29.52Q237.09-28.16 237.25-27.03L237.25-27.03L237.25-27.03Q238.69-28.69 240-29.75L240-29.75L240-29.75Q241.31-30.81 242.61-31.42L242.61-31.42L242.61-31.42Q243.91-32.03 245.19-32.27L245.19-32.27L245.19-32.27Q246.47-32.50 247.81-32.50L247.81-32.50L247.81-32.50Q249.34-32.50 250.59-32.06L250.59-32.06L250.59-32.06Q251.84-31.63 252.80-30.91L252.80-30.91L252.80-30.91Q253.75-30.19 254.44-29.23L254.44-29.23L254.44-29.23Q255.13-28.28 255.50-27.25L255.50-27.25L255.50-27.25Q256.97-28.84 258.34-29.86L258.34-29.86L258.34-29.86Q259.72-30.88 261.03-31.45L261.03-31.45L261.03-31.45Q262.34-32.03 263.61-32.27L263.61-32.27L263.61-32.27Q264.88-32.50 266.09-32.50L266.09-32.50L266.09-32.50Q268.47-32.50 270.09-31.73L270.09-31.73L270.09-31.73Q271.72-30.97 272.70-29.47L272.70-29.47L272.70-29.47Q273.69-27.97 274.11-25.75L274.11-25.75L274.11-25.75Q274.53-23.53 274.53-20.63L274.53-20.63L274.53 0L268.75 0L268.75-17.19L268.75-17.19Q268.75-20.22 268.53-22.13L268.53-22.13L268.53-22.13Q268.31-24.03 267.80-25.13L267.80-25.13L267.80-25.13Q267.28-26.22 266.41-26.63L266.41-26.63L266.41-26.63Q265.53-27.03 264.22-27.03L264.22-27.03L264.22-27.03Q263.06-27.03 261.94-26.58L261.94-26.58L261.94-26.58Q260.81-26.13 259.77-25.30L259.77-25.30L259.77-25.30Q258.72-24.47 257.83-23.28L257.83-23.28L257.83-23.28Q256.94-22.09 256.25-20.63L256.25-20.63ZM290-17.97L290-8.13L290-8.13Q291.59-7 292.77-6.27L292.77-6.27L292.77-6.27Q293.94-5.53 294.91-5.11L294.91-5.11L294.91-5.11Q295.88-4.69 296.77-4.53L296.77-4.53L296.77-4.53Q297.66-4.38 298.75-4.38L298.75-4.38L298.75-4.38Q300.41-4.38 301.92-5.16L301.92-5.16L301.92-5.16Q303.44-5.94 304.61-7.42L304.61-7.42L304.61-7.42Q305.78-8.91 306.48-11.02L306.48-11.02L306.48-11.02Q307.19-13.13 307.19-15.78L307.19-15.78L307.19-15.78Q307.19-18.38 306.70-20.48L306.70-20.48L306.70-20.48Q306.22-22.59 305.28-24.08L305.28-24.08L305.28-24.08Q304.34-25.56 303.02-26.38L303.02-26.38L303.02-26.38Q301.69-27.19 300-27.19L300-27.19L300-27.19Q298.66-27.19 297.25-26.59L297.25-26.59L297.25-26.59Q295.84-26 294.52-24.84L294.52-24.84L294.52-24.84Q293.19-23.69 292.03-21.95L292.03-21.95L292.03-21.95Q290.88-20.22 290-17.97L290-17.97ZM282.66-31.88L288.28-31.88L288.28-31.88Q288.63-31.06 288.97-29.58L288.97-29.58L288.97-29.58Q289.31-28.09 289.53-25.94L289.53-25.94L289.53-25.94Q290.63-27.38 291.92-28.59L291.92-28.59L291.92-28.59Q293.22-29.81 294.67-30.67L294.67-30.67L294.67-30.67Q296.13-31.53 297.73-32.02L297.73-32.02L297.73-32.02Q299.34-32.50 301.09-32.50L301.09-32.50L301.09-32.50Q303.75-32.50 305.95-31.33L305.95-31.33L305.95-31.33Q308.16-30.16 309.70-28.05L309.70-28.05L309.70-28.05Q311.25-25.94 312.11-23.05L312.11-23.05L312.11-23.05Q312.97-20.16 312.97-16.72L312.97-16.72L312.97-16.72Q312.97-12.72 311.84-9.48L311.84-9.48L311.84-9.48Q310.72-6.25 308.80-3.97L308.80-3.97L308.80-3.97Q306.88-1.69 304.28-0.45L304.28-0.45L304.28-0.45Q301.69 0.78 298.75 0.78L298.75 0.78L298.75 0.78Q297.50 0.78 296.39 0.53L296.39 0.53L296.39 0.53Q295.28 0.28 294.23-0.16L294.23-0.16L294.23-0.16Q293.19-0.59 292.16-1.23L292.16-1.23L292.16-1.23Q291.13-1.88 290-2.66L290-2.66L290 4.69L290 4.69Q290 6.56 290.05 8.08L290.05 8.08L290.05 8.08Q290.09 9.59 290.19 10.88L290.19 10.88L290.19 10.88Q290.28 12.16 290.44 13.23L290.44 13.23L290.44 13.23Q290.59 14.31 290.78 15.31L290.78 15.31L284.22 15.31L284.22-15.16L284.22-15.16Q284.22-18.06 284.17-20.55L284.17-20.55L284.17-20.55Q284.13-23.03 283.97-25.11L283.97-25.11L283.97-25.11Q283.81-27.19 283.50-28.88L283.50-28.88L283.50-28.88Q283.19-30.56 282.66-31.88L282.66-31.88ZM350 0L344.69 0L344.69 0Q344.47-0.53 344.22-1.25L344.22-1.25L344.22-1.25Q343.97-1.97 343.73-2.78L343.73-2.78L343.73-2.78Q343.50-3.59 343.30-4.48L343.30-4.48L343.30-4.48Q343.09-5.38 342.97-6.25L342.97-6.25L342.97-6.25Q340.13-2.78 337.11-1L337.11-1L337.11-1Q334.09 0.78 330.78 0.78L330.78 0.78L330.78 0.78Q320.78 0.78 320.78-12.66L320.78-12.66L320.78-21.88L320.78-21.88Q320.78-23.38 320.77-24.59L320.77-24.59L320.77-24.59Q320.75-25.81 320.69-26.95L320.69-26.95L320.69-26.95Q320.63-28.09 320.50-29.28L320.50-29.28L320.50-29.28Q320.38-30.47 320.16-31.88L320.16-31.88L326.56-31.88L326.56-14.53L326.56-14.53Q326.56-11.88 326.83-9.95L326.83-9.95L326.83-9.95Q327.09-8.03 327.72-6.80L327.72-6.80L327.72-6.80Q328.34-5.56 329.36-4.97L329.36-4.97L329.36-4.97Q330.38-4.38 331.88-4.38L331.88-4.38L331.88-4.38Q333.25-4.38 334.81-5.20L334.81-5.20L334.81-5.20Q336.38-6.03 337.80-7.31L337.80-7.31L337.80-7.31Q339.22-8.59 340.39-10.14L340.39-10.14L340.39-10.14Q341.56-11.69 342.19-13.13L342.19-13.13L342.19-21.88L342.19-21.88Q342.19-23.41 342.17-24.64L342.17-24.64L342.17-24.64Q342.16-25.88 342.09-27L342.09-27L342.09-27Q342.03-28.13 341.91-29.28L341.91-29.28L341.91-29.28Q341.78-30.44 341.56-31.88L341.56-31.88L347.97-31.88L347.97-14.06L347.97-14.06Q347.97-9.50 348.48-6.08L348.48-6.08L348.48-6.08Q349-2.66 350 0L350 0ZM353.91-26.56L353.91-31.09L360.16-31.09L360.16-41.25L365.94-41.25L365.94-31.09L376.09-31.09L376.09-26.56L365.94-26.56L365.94-12.19L365.94-12.19Q365.94-9.78 366.17-8.25L366.17-8.25L366.17-8.25Q366.41-6.72 366.89-5.86L366.89-5.86L366.89-5.86Q367.38-5 368.13-4.69L368.13-4.69L368.13-4.69Q368.88-4.38 369.94-4.38L369.94-4.38L369.94-4.38Q371.28-4.38 372.97-4.97L372.97-4.97L372.97-4.97Q374.66-5.56 376.72-6.72L376.72-6.72L376.72-1.72L376.72-1.72Q374.56-0.31 372.59 0.23L372.59 0.23L372.59 0.23Q370.63 0.78 368.97 0.78L368.97 0.78L368.97 0.78Q367.13 0.78 365.53 0.36L365.53 0.36L365.53 0.36Q363.94-0.06 362.73-1.13L362.73-1.13L362.73-1.13Q361.53-2.19 360.84-3.95L360.84-3.95L360.84-3.95Q360.16-5.72 360.16-8.44L360.16-8.44L360.16-26.56L353.91-26.56ZM409.97-15.16L387.81-15.16L387.81-15.16Q387.91-12.41 388.67-10.38L388.67-10.38L388.67-10.38Q389.44-8.34 390.77-7.02L390.77-7.02L390.77-7.02Q392.09-5.69 393.89-5.03L393.89-5.03L393.89-5.03Q395.69-4.38 397.81-4.38L397.81-4.38L397.81-4.38Q400.84-4.38 403.75-5.06L403.75-5.06L403.75-5.06Q406.66-5.75 409.53-7.50L409.53-7.50L410.16-2.34L410.16-2.34Q408.50-1.50 406.91-0.91L406.91-0.91L406.91-0.91Q405.31-0.31 403.72 0.06L403.72 0.06L403.72 0.06Q402.13 0.44 400.48 0.61L400.48 0.61L400.48 0.61Q398.84 0.78 397.03 0.78L397.03 0.78L397.03 0.78Q394.03 0.78 391.31-0.27L391.31-0.27L391.31-0.27Q388.59-1.31 386.53-3.36L386.53-3.36L386.53-3.36Q384.47-5.41 383.25-8.44L383.25-8.44L383.25-8.44Q382.03-11.47 382.03-15.47L382.03-15.47L382.03-15.47Q382.03-19.34 383.08-22.48L383.08-22.48L383.08-22.48Q384.13-25.63 386.06-27.86L386.06-27.86L386.06-27.86Q388-30.09 390.78-31.30L390.78-31.30L390.78-31.30Q393.56-32.50 397.03-32.50L397.03-32.50L397.03-32.50Q399.59-32.50 401.56-31.89L401.56-31.89L401.56-31.89Q403.53-31.28 404.97-30.20L404.97-30.20L404.97-30.20Q406.41-29.13 407.38-27.69L407.38-27.69L407.38-27.69Q408.34-26.25 408.92-24.59L408.92-24.59L408.92-24.59Q409.50-22.94 409.75-21.14L409.75-21.14L409.75-21.14Q410-19.34 410-17.59L410-17.59L410-16.38L410-16.38Q410-15.59 409.97-15.16L409.97-15.16ZM396.56-27.81L396.56-27.81L396.56-27.81Q393.13-27.81 390.94-25.80L390.94-25.80L390.94-25.80Q388.75-23.78 388.06-19.53L388.06-19.53L404.38-19.53L404.38-19.53Q404.38-21.53 403.80-23.08L403.80-23.08L403.80-23.08Q403.22-24.63 402.17-25.69L402.17-25.69L402.17-25.69Q401.13-26.75 399.69-27.28L399.69-27.28L399.69-27.28Q398.25-27.81 396.56-27.81ZM423.91 0L418.13 0L418.13-19.22L418.13-19.22Q418.13-23.84 417.61-27.05L417.61-27.05L417.61-27.05Q417.09-30.25 416.56-31.88L416.56-31.88L422.19-31.88L422.19-31.88Q422.38-31.38 422.56-30.58L422.56-30.58L422.56-30.58Q422.75-29.78 422.91-28.91L422.91-28.91L422.91-28.91Q423.06-28.03 423.19-27.19L423.19-27.19L423.44-25.78L423.44-25.78Q424.56-27.41 425.89-28.66L425.89-28.66L425.89-28.66Q427.22-29.91 428.58-30.77L428.58-30.77L428.58-30.77Q429.94-31.63 431.23-32.06L431.23-32.06L431.23-32.06Q432.53-32.50 433.59-32.50L433.59-32.50L433.59-32.50Q435.56-32.50 436.92-31.64L436.92-31.64L436.92-31.64Q438.28-30.78 439.14-29.33L439.14-29.33L439.14-29.33Q440-27.88 440.39-25.98L440.39-25.98L440.39-25.98Q440.78-24.09 440.78-22.03L440.78-22.03L435.78-20.94L435.78-20.94Q435.72-22.19 435.48-23.25L435.48-23.25L435.48-23.25Q435.25-24.31 434.83-25.09L434.83-25.09L434.83-25.09Q434.41-25.88 433.77-26.30L433.77-26.30L433.77-26.30Q433.13-26.72 432.19-26.72L432.19-26.72L432.19-26.72Q431.19-26.72 429.97-25.97L429.97-25.97L429.97-25.97Q428.75-25.22 427.58-24.02L427.58-24.02L427.58-24.02Q426.41-22.81 425.41-21.27L425.41-21.27L425.41-21.27Q424.41-19.72 423.91-18.13L423.91-18.13L423.91 0ZM467.19-30L466.09-24.53L466.09-24.53Q465.31-25 464.31-25.52L464.31-25.52L464.31-25.52Q463.31-26.03 462.14-26.47L462.14-26.47L462.14-26.47Q460.97-26.91 459.64-27.20L459.64-27.20L459.64-27.20Q458.31-27.50 456.88-27.50L456.88-27.50L456.88-27.50Q455.16-27.50 453.98-27.13L453.98-27.13L453.98-27.13Q452.81-26.75 452.11-26.17L452.11-26.17L452.11-26.17Q451.41-25.59 451.09-24.86L451.09-24.86L451.09-24.86Q450.78-24.13 450.78-23.44L450.78-23.44L450.78-23.44Q450.78-22.63 451.03-22L451.03-22L451.03-22Q451.28-21.38 452.08-20.84L452.08-20.84L452.08-20.84Q452.88-20.31 454.34-19.81L454.34-19.81L454.34-19.81Q455.81-19.31 458.28-18.75L458.28-18.75L458.28-18.75Q460.41-18.28 462.28-17.55L462.28-17.55L462.28-17.55Q464.16-16.81 465.56-15.69L465.56-15.69L465.56-15.69Q466.97-14.56 467.78-12.98L467.78-12.98L467.78-12.98Q468.59-11.41 468.59-9.22L468.59-9.22L468.59-9.22Q468.59-7.09 467.66-5.28L467.66-5.28L467.66-5.28Q466.72-3.47 465.09-2.11L465.09-2.11L465.09-2.11Q463.47-0.75 461.28 0.02L461.28 0.02L461.28 0.02Q459.09 0.78 456.56 0.78L456.56 0.78L456.56 0.78Q454.66 0.78 452.89 0.50L452.89 0.50L452.89 0.50Q451.13 0.22 449.58-0.28L449.58-0.28L449.58-0.28Q448.03-0.78 446.75-1.44L446.75-1.44L446.75-1.44Q445.47-2.09 444.53-2.81L444.53-2.81L446.09-8.44L446.09-8.44Q447.16-7.50 448.48-6.72L448.48-6.72L448.48-6.72Q449.81-5.94 451.22-5.38L451.22-5.38L451.22-5.38Q452.63-4.81 454.05-4.52L454.05-4.52L454.05-4.52Q455.47-4.22 456.72-4.22L456.72-4.22L456.72-4.22Q458.09-4.22 459.23-4.58L459.23-4.58L459.23-4.58Q460.38-4.94 461.20-5.52L461.20-5.52L461.20-5.52Q462.03-6.09 462.50-6.86L462.50-6.86L462.50-6.86Q462.97-7.63 462.97-8.44L462.97-8.44L462.97-8.44Q462.97-9.31 462.61-10.08L462.61-10.08L462.61-10.08Q462.25-10.84 461.30-11.55L461.30-11.55L461.30-11.55Q460.34-12.25 458.67-12.91L458.67-12.91L458.67-12.91Q457-13.56 454.38-14.22L454.38-14.22L454.38-14.22Q451.53-14.91 449.73-15.84L449.73-15.84L449.73-15.84Q447.94-16.78 446.92-17.91L446.92-17.91L446.92-17.91Q445.91-19.03 445.53-20.34L445.53-20.34L445.53-20.34Q445.16-21.66 445.16-23.13L445.16-23.13L445.16-23.13Q445.16-23.84 445.39-24.81L445.39-24.81L445.39-24.81Q445.63-25.78 446.17-26.83L446.17-26.83L446.17-26.83Q446.72-27.88 447.61-28.89L447.61-28.89L447.61-28.89Q448.50-29.91 449.84-30.70L449.84-30.70L449.84-30.70Q451.19-31.50 453-32L453-32L453-32Q454.81-32.50 457.19-32.50L457.19-32.50L457.19-32.50Q458.88-32.50 460.36-32.28L460.36-32.28L460.36-32.28Q461.84-32.06 463.08-31.70L463.08-31.70L463.08-31.70Q464.31-31.34 465.34-30.89L465.34-30.89L465.34-30.89Q466.38-30.44 467.19-30L467.19-30Z" fill="url(#editing-gradow-gradient)"></path></g></g><style>text {
  font-size: 64px;
  font-family: Arial Black;
  dominant-baseline: central;
  text-anchor: middle;
}</style></svg>